<svg xmlns="http://www.w3.org/2000/svg" viewBox="0 0 400 250" width="100%" height="auto">
  <defs>
    <linearGradient id="card-bg2" x1="0%" y1="0%" x2="100%" y2="100%">
      <stop offset="0%" stop-color="#14092b" />
      <stop offset="100%" stop-color="#0b0417" />
    </linearGradient>
  </defs>

  <style>
    .card-border { fill: url(#card-bg2); stroke: #9b51e0; stroke-width: 1.5; rx: 18; }
    .card-title { font-family: 'Segoe UI', sans-serif; font-size: 17px; font-weight: 800; fill: #ffffff; }
    .lang-name { font-family: 'Fira Code', monospace; font-size: 13px; font-weight: 700; fill: #ffffff; }
    .lang-pct { font-family: 'Fira Code', monospace; font-size: 13px; font-weight: 700; fill: #ff66cc; text-anchor: end; }
  </style>

  <rect width="400" height="250" class="card-border" />

  <!-- Title -->
  <text x="25" y="38" class="card-title">📊 Top Languages</text>

  <!-- Multi-Color Progress Bar Stack -->
  <g transform="translate(25, 55)">
    <rect width="350" height="12" rx="6" fill="rgba(255,255,255,0.1)"/>
    <!-- Python 42% -->
    <rect x="0" y="0" width="147" height="12" rx="6" fill="#ff66cc"/>
    <!-- TypeScript 28% -->
    <rect x="147" y="0" width="98" height="12" fill="#00f2fe"/>
    <!-- C++ / IoT 18% -->
    <rect x="245" y="0" width="63" height="12" fill="#b55fe6"/>
    <!-- JavaScript 12% -->
    <rect x="308" y="0" width="42" height="12" rx="6" fill="#00ffcc"/>
  </g>

  <!-- Language Legend Rows -->
  <g transform="translate(25, 95)">
    <!-- Python -->
    <g transform="translate(0, 0)">
      <circle cx="6" cy="6" r="5" fill="#ff66cc"/>
      <text x="22" y="10" class="lang-name">Python</text>
      <text x="350" y="10" class="lang-pct">42.0%</text>
    </g>

    <!-- TypeScript -->
    <g transform="translate(0, 32)">
      <circle cx="6" cy="6" r="5" fill="#00f2fe"/>
      <text x="22" y="10" class="lang-name">TypeScript</text>
      <text x="350" y="10" class="lang-pct">28.0%</text>
    </g>

    <!-- C++ / Arduino -->
    <g transform="translate(0, 64)">
      <circle cx="6" cy="6" r="5" fill="#b55fe6"/>
      <text x="22" y="10" class="lang-name">C++ / IoT</text>
      <text x="350" y="10" class="lang-pct">18.0%</text>
    </g>

    <!-- JavaScript -->
    <g transform="translate(0, 96)">
      <circle cx="6" cy="6" r="5" fill="#00ffcc"/>
      <text x="22" y="10" class="lang-name">JavaScript</text>
      <text x="350" y="10" class="lang-pct">12.0%</text>
    </g>
  </g>
</svg>